<svg width="44" height="44" viewBox="0 0 44 44" fill="none" xmlns="http://www.w3.org/2000/svg">
<path d="M22.3775 15.3242C23.3878 15.3242 24.6543 14.6202 25.4085 13.6815C26.0915 12.8308 26.5896 11.6427 26.5896 10.4547C26.5896 10.2933 26.5753 10.132 26.5469 10C25.4227 10.044 24.0709 10.7774 23.2598 11.7601C22.6194 12.5081 22.036 13.6815 22.036 14.8842C22.036 15.0602 22.0645 15.2362 22.0787 15.2948C22.1498 15.3095 22.2637 15.3242 22.3775 15.3242ZM18.82 33.0714C20.2003 33.0714 20.8122 32.1181 22.534 32.1181C24.2843 32.1181 24.6685 33.0421 26.2054 33.0421C27.7137 33.0421 28.7241 31.6047 29.6775 30.1967C30.7447 28.5833 31.1858 26.9992 31.2143 26.9259C31.1147 26.8966 28.226 25.6792 28.226 22.2617C28.226 19.299 30.5028 17.9643 30.6309 17.8616C29.1225 15.6322 26.8315 15.5735 26.2054 15.5735C24.512 15.5735 23.1317 16.6296 22.2637 16.6296C21.3245 16.6296 20.0865 15.6322 18.6208 15.6322C15.8318 15.6322 13 18.0083 13 22.4964C13 25.2832 14.053 28.2313 15.3479 30.138C16.4579 31.7514 17.4255 33.0714 18.82 33.0714Z" fill="black"/>
</svg>
