<svg width="44" height="44" viewBox="0 0 44 44" fill="none" xmlns="http://www.w3.org/2000/svg">
<path d="M33 22.0404C33 15.943 28.0751 11 22 11C15.9249 11 11 15.943 11 22.0404C11 27.2179 14.5517 31.5625 19.3428 32.7558V25.4144H17.0746V22.0404H19.3428V20.5866C19.3428 16.8289 21.0373 15.0872 24.713 15.0872C25.41 15.0872 26.6125 15.2245 27.1044 15.3614V18.4196C26.8448 18.3922 26.3938 18.3785 25.8337 18.3785C24.0302 18.3785 23.3332 19.0644 23.3332 20.8472V22.0404H26.9262L26.3089 25.4144H23.3332V33C28.7791 32.3398 33 27.6851 33 22.0404Z" fill="#0966FF"/>
</svg>
