<svg width="44" height="44" viewBox="0 0 44 44" fill="none" xmlns="http://www.w3.org/2000/svg">
<mask id="mask0_318_5676" style="mask-type:luminance" maskUnits="userSpaceOnUse" x="11" y="11" width="22" height="22">
<path d="M33 11H11V33H33V11Z" fill="white"/>
</mask>
<g mask="url(#mask0_318_5676)">
<path d="M32.56 22.25C32.56 21.47 32.49 20.72 32.36 20H22V24.255H27.92C27.665 25.63 26.8901 26.795 25.725 27.575V30.335H29.28C31.36 28.42 32.56 25.6 32.56 22.25Z" fill="#4285F4"/>
<path d="M22 33C24.97 33 27.4599 32.0149 29.2799 30.335L25.7249 27.575C24.74 28.235 23.4799 28.625 22 28.625C19.1349 28.625 16.71 26.69 15.8449 24.09H12.1699V26.94C13.98 30.535 17.7 33 22 33Z" fill="#34A853"/>
<path d="M15.845 24.09C15.625 23.43 15.5 22.725 15.5 22C15.5 21.275 15.625 20.57 15.845 19.91V17.06H12.17C11.425 18.545 11 20.225 11 22C11 23.775 11.425 25.455 12.17 26.94L15.845 24.09Z" fill="#FBBC04"/>
<path d="M22 15.375C23.6149 15.375 25.0649 15.93 26.2049 17.02L29.36 13.8649C27.455 12.09 24.9649 11 22 11C17.7 11 13.98 13.465 12.1699 17.06L15.8449 19.91C16.71 17.31 19.1349 15.375 22 15.375Z" fill="#E94235"/>
</g>
</svg>
