<svg width="25" height="24" viewBox="0 0 25 24" fill="none" xmlns="http://www.w3.org/2000/svg">
<path d="M6.8589 1.09122C7.08649 0.950271 7.52099 0.779121 7.82101 0.698579H7.81066C8.11067 0.618037 8.54517 0.577767 8.77277 0.60797C9.00036 0.638173 9.30038 0.728782 9.44521 0.799256C9.59004 0.86973 9.86937 1.10129 10.0763 1.31271C10.2935 1.52413 10.5728 1.91677 10.7177 2.19867C10.8625 2.47049 11.0798 3.06449 11.1936 3.50747C11.3177 3.95044 11.4625 4.81627 11.5246 5.42033C11.6177 6.26601 11.6074 6.66872 11.5143 7.13183C11.4418 7.46407 11.2867 7.93725 11.1522 8.18894C11.028 8.44064 10.666 8.86348 10.3659 9.12524C10.0452 9.40714 9.55901 9.6991 9.23831 9.81991C8.92795 9.93065 8.38999 10.0716 8.0486 10.132C7.54168 10.2126 7.2934 10.2025 6.72441 10.0716C6.34164 9.97092 5.84506 9.78971 5.61747 9.64876C5.38987 9.50781 5.08986 9.22591 4.94503 9.01449C4.81054 8.81314 4.61398 8.44064 4.52087 8.18894C4.39673 7.86678 4.345 7.41373 4.345 6.57811C4.33466 5.69216 4.38639 5.21897 4.5726 4.56457C4.69674 4.09139 4.95537 3.38665 5.15193 3.00408C5.34849 2.61144 5.72092 2.08792 5.97955 1.81609C6.23818 1.55433 6.6313 1.23217 6.8589 1.09122Z" fill="#F0A095"/>
<path d="M14.4937 0.940204C14.7006 0.799256 15.042 0.658308 15.2489 0.628105C15.4455 0.587834 15.7765 0.577767 15.9731 0.60797C16.1696 0.638173 16.6145 0.779121 16.9559 0.940204C17.3283 1.11135 17.7835 1.44359 18.1042 1.76575C18.3938 2.05772 18.7766 2.57117 18.9421 2.9034C19.118 3.23564 19.356 3.82963 19.4801 4.2122C19.6042 4.59478 19.7491 5.29952 19.8008 5.7727C19.8629 6.32642 19.8629 6.87008 19.7905 7.33319C19.7387 7.71576 19.5939 8.23928 19.4801 8.49097C19.3663 8.74267 19.1284 9.09504 18.9421 9.27625C18.7559 9.46754 18.4352 9.6991 18.218 9.80984C18.0111 9.91052 17.618 10.0515 17.3386 10.1119C16.9972 10.1823 16.6352 10.1823 16.0765 10.1119C15.6317 10.0414 15.0316 9.87025 14.6799 9.6991C14.3385 9.53801 13.904 9.25612 13.7075 9.0749C13.5109 8.89368 13.2523 8.57152 13.1178 8.36009C12.9833 8.15874 12.7971 7.72583 12.7143 7.41373C12.6315 7.09156 12.5591 6.53784 12.5591 6.1754C12.5591 5.81297 12.6315 5.1183 12.7143 4.61491C12.7971 4.11153 12.9833 3.36652 13.1281 2.95374C13.273 2.54097 13.5523 1.97718 13.7488 1.69528C13.9454 1.42345 14.2764 1.08115 14.4937 0.940204Z" fill="#F0A095"/>
<path d="M1.21039 8.41043C1.36557 8.32989 1.6242 8.22921 1.77938 8.17888C1.93456 8.13861 2.1725 8.09833 2.31733 8.09833C2.46217 8.08827 2.74149 8.1386 2.93805 8.19901C3.13461 8.26948 3.43462 8.41043 3.60015 8.53125C3.77601 8.65206 4.15879 9.06483 4.47949 9.4474C4.78985 9.82998 5.40022 10.5347 5.83472 11.0079C6.26922 11.4811 6.71407 12.0247 6.81752 12.216C6.95201 12.4677 6.98304 12.7194 6.95201 13.1221C6.93131 13.4241 6.79683 13.8973 6.66234 14.1792C6.51751 14.451 6.18646 14.9041 5.92783 15.186C5.61747 15.5082 5.22435 15.7901 4.78985 15.9914C4.27259 16.223 3.98292 16.2834 3.45531 16.2934C2.89667 16.2934 2.68976 16.233 2.22423 15.9914C1.91387 15.8203 1.51041 15.5082 1.32419 15.2867C1.13798 15.0652 0.869001 14.6222 0.724167 14.3C0.579334 13.9879 0.351738 13.3738 0.237941 12.9409C0.0827619 12.4274 0.0103452 11.8536 0 11.2596C0 10.7461 0.0517267 10.1823 0.134489 9.95079C0.206905 9.7293 0.41381 9.32659 0.600024 9.05476C0.775894 8.78294 1.05522 8.49097 1.21039 8.41043Z" fill="#F0A095"/>
<path d="M20.4732 8.61179C20.6698 8.46077 20.9905 8.27955 21.1767 8.21915C21.3526 8.14867 21.7147 8.1084 21.9733 8.12854C22.2319 8.14867 22.6044 8.24935 22.8009 8.35003C22.9975 8.44064 23.2458 8.62185 23.3492 8.7326C23.4527 8.85341 23.6492 9.15544 23.7837 9.4172C23.9286 9.68903 24.0941 10.2025 24.1458 10.575C24.2286 11.0683 24.2286 11.471 24.1355 12.0147C24.0734 12.4274 23.9286 13.0416 23.8148 13.3738C23.701 13.706 23.5044 14.1994 23.3699 14.4813C23.2458 14.7531 22.9458 15.1759 22.7182 15.4075C22.4802 15.6491 22.0871 15.9411 21.8388 16.0619C21.5181 16.223 21.2284 16.2834 20.7319 16.2834C20.2043 16.2834 19.9146 16.223 19.3973 15.9914C18.9835 15.8001 18.5594 15.4981 18.249 15.186C17.98 14.9041 17.6593 14.4813 17.5248 14.2296C17.3904 13.9678 17.2662 13.5148 17.2352 13.1725C17.1938 12.6892 17.2352 12.4878 17.4007 12.1657C17.5248 11.9442 18.0007 11.3502 18.4663 10.8569C18.9318 10.3636 19.4904 9.70917 19.7077 9.4172C19.9353 9.13531 20.2767 8.77287 20.4732 8.61179Z" fill="#F0A095"/>
<path d="M5.96957 19.4257C5.96959 20.0716 6.18118 20.7023 6.5764 21.2345C6.97163 21.7667 7.53189 22.1754 8.1832 22.4065C8.83451 22.6377 9.54622 22.6805 10.2243 22.5292C10.9024 22.3779 11.515 22.0398 11.9812 21.5593C12.0141 21.5268 12.0538 21.5009 12.0979 21.4832C12.142 21.4655 12.1895 21.4563 12.2376 21.4563C12.2857 21.4563 12.3332 21.4655 12.3773 21.4832C12.4214 21.5009 12.4611 21.5268 12.494 21.5593C12.9587 22.0429 13.5715 22.3839 14.2507 22.537C14.9299 22.6901 15.6433 22.648 16.2961 22.4163C16.9488 22.1847 17.5099 21.7744 17.9046 21.2402C18.2993 20.7059 18.509 20.073 18.5057 19.4257C18.5057 18.0965 17.5654 17.104 16.6252 16.2334L13.1828 13.1496C13.066 13.0254 12.922 12.9256 12.7604 12.8569C12.5988 12.7881 12.4232 12.7521 12.2453 12.751C12.0675 12.75 11.8914 12.784 11.7288 12.8508C11.5663 12.9176 11.4209 13.0157 11.3024 13.1385L7.84999 16.2334C6.90978 17.104 5.96957 18.0907 5.96957 19.4257Z" fill="#F0A095"/>
</svg>
