<svg width="42" height="54" viewBox="0 0 42 54" fill="none" xmlns="http://www.w3.org/2000/svg">
<path d="M12.1173 1.84825C12.5027 1.60952 13.2387 1.31963 13.7468 1.18321H13.7293C14.2375 1.0468 14.9734 0.978588 15.3589 1.02974C15.7444 1.0809 16.2525 1.23437 16.4978 1.35374C16.7431 1.4731 17.2162 1.8653 17.5667 2.2234C17.9347 2.58149 18.4078 3.24653 18.6531 3.72399C18.8984 4.18439 19.2663 5.19047 19.4591 5.94077C19.6694 6.69106 19.9147 8.15755 20.0198 9.18068C20.1775 10.6131 20.16 11.2951 20.0023 12.0795C19.8796 12.6423 19.6168 13.4437 19.389 13.87C19.1787 14.2963 18.5655 15.0125 18.0573 15.4559C17.5141 15.9333 16.6906 16.4278 16.1474 16.6325C15.6217 16.82 14.7106 17.0588 14.1323 17.1611C13.2737 17.2975 12.8532 17.2804 11.8895 17.0588C11.2411 16.8882 10.4001 16.5813 10.0146 16.3426C9.6291 16.1039 9.12095 15.6264 8.87564 15.2683C8.64785 14.9273 8.31493 14.2963 8.15723 13.87C7.94696 13.3243 7.85935 12.557 7.85935 11.1417C7.84183 9.64108 7.92944 8.83963 8.24484 7.73124C8.45511 6.92979 8.89316 5.73614 9.22609 5.08816C9.55901 4.42312 10.1898 3.53641 10.6279 3.076C11.0659 2.63265 11.7318 2.08698 12.1173 1.84825Z" fill="#F0A095"/>
<path d="M25.0487 1.59247C25.3991 1.35374 25.9774 1.11501 26.3278 1.06385C26.6607 0.99564 27.2215 0.978588 27.5544 1.02974C27.8873 1.0809 28.6408 1.31963 29.219 1.59247C29.8498 1.88235 30.6208 2.44507 31.164 2.99074C31.6546 3.48526 32.3029 4.35492 32.5833 4.91764C32.8811 5.48036 33.2842 6.48643 33.4944 7.13442C33.7047 7.7824 33.95 8.97605 34.0376 9.7775C34.1427 10.7154 34.1427 11.6362 34.0201 12.4206C33.9325 13.0686 33.6872 13.9553 33.4944 14.3816C33.3017 14.8079 32.8987 15.4047 32.5833 15.7117C32.2679 16.0356 31.7247 16.4278 31.3567 16.6154C31.0063 16.7859 30.3404 17.0247 29.8673 17.127C29.2891 17.2463 28.6758 17.2463 27.7296 17.127C26.9761 17.0076 25.9598 16.7177 25.3641 16.4278C24.7859 16.155 24.0499 15.6775 23.717 15.3706C23.3841 15.0637 22.946 14.518 22.7182 14.1599C22.4904 13.8189 22.175 13.0856 22.0349 12.557C21.8947 12.0113 21.772 11.0735 21.772 10.4596C21.772 9.84571 21.8947 8.66911 22.0349 7.8165C22.175 6.9639 22.4904 5.70204 22.7358 5.0029C22.9811 4.30376 23.4542 3.34884 23.7871 2.87138C24.12 2.41097 24.6807 1.8312 25.0487 1.59247Z" fill="#F0A095"/>
<path d="M2.55011 14.2452C2.81294 14.1087 3.251 13.9382 3.51383 13.853C3.77666 13.7848 4.17967 13.7165 4.42499 13.7165C4.6703 13.6995 5.1434 13.7848 5.47632 13.8871C5.80925 14.0064 6.31739 14.2452 6.59775 14.4498C6.89563 14.6544 7.54395 15.3536 8.08714 16.0015C8.61281 16.6495 9.64662 17.8432 10.3826 18.6446C11.1185 19.4461 11.8719 20.3669 12.0472 20.6909C12.275 21.1172 12.3275 21.5435 12.275 22.2256C12.2399 22.7371 12.0121 23.5386 11.7843 24.016C11.539 24.4765 10.9783 25.2438 10.5403 25.7213C10.0146 26.2669 9.34874 26.7444 8.61281 27.0854C7.7367 27.4776 7.24607 27.58 6.35244 27.597C5.40623 27.597 5.05579 27.4947 4.26729 27.0854C3.74162 26.7956 3.05825 26.2669 2.74285 25.8918C2.42745 25.5166 1.97187 24.7663 1.72656 24.2207C1.48125 23.6921 1.09576 22.6519 0.903012 21.9186C0.640178 21.049 0.517522 20.077 0.5 19.0709C0.5 18.2013 0.587612 17.2463 0.72779 16.8541C0.850446 16.479 1.20089 15.7969 1.51629 15.3365C1.81417 14.8761 2.28727 14.3816 2.55011 14.2452Z" fill="#F0A095"/>
<path d="M35.1766 14.5862C35.5095 14.3304 36.0527 14.0235 36.3681 13.9212C36.666 13.8018 37.2792 13.7336 37.7173 13.7677C38.1553 13.8018 38.7861 13.9723 39.1191 14.1429C39.452 14.2963 39.8725 14.6033 40.0477 14.7908C40.223 14.9955 40.5559 15.507 40.7837 15.9504C41.029 16.4108 41.3093 17.2804 41.397 17.9114C41.5371 18.7469 41.5371 19.429 41.3794 20.3498C41.2743 21.049 41.029 22.0892 40.8362 22.6519C40.6435 23.2146 40.3106 24.0502 40.0828 24.5276C39.8725 24.988 39.3644 25.7042 38.9789 26.0964C38.5759 26.5057 37.91 27.0002 37.4895 27.2048C36.9463 27.4776 36.4557 27.58 35.6146 27.58C34.721 27.58 34.2304 27.4776 33.3542 27.0854C32.6534 26.7614 31.9349 26.2499 31.4093 25.7213C30.9537 25.2438 30.4105 24.5276 30.1827 24.1013C29.9549 23.658 29.7447 22.8906 29.6921 22.3108C29.622 21.4923 29.6921 21.1513 29.9724 20.6056C30.1827 20.2305 30.9887 19.2244 31.7772 18.3888C32.5657 17.5533 33.5119 16.4449 33.8799 15.9504C34.2654 15.4729 34.8436 14.859 35.1766 14.5862Z" fill="#F0A095"/>
<path d="M10.611 32.9023C10.611 33.9963 10.9694 35.0645 11.6388 35.9659C12.3082 36.8673 13.2572 37.5595 14.3603 37.9511C15.4635 38.3426 16.6689 38.415 17.8175 38.1588C18.966 37.9026 20.0036 37.3299 20.7933 36.5161C20.8489 36.4611 20.9161 36.4172 20.9908 36.3871C21.0655 36.3571 21.146 36.3416 21.2275 36.3416C21.3089 36.3416 21.3894 36.3571 21.4641 36.3871C21.5388 36.4172 21.6061 36.4611 21.6617 36.5161C22.4488 37.3351 23.4867 37.9127 24.6371 38.1721C25.7875 38.4314 26.9959 38.3601 28.1015 37.9677C29.2071 37.5753 30.1574 36.8804 30.826 35.9755C31.4945 35.0706 31.8496 33.9987 31.844 32.9023C31.844 30.651 30.2515 28.9699 28.659 27.4953L22.8284 22.2721C22.6306 22.0617 22.3867 21.8927 22.1129 21.7763C21.8392 21.6599 21.5418 21.5988 21.2405 21.597C20.9393 21.5953 20.6411 21.6529 20.3657 21.7661C20.0904 21.8792 19.8442 22.0454 19.6435 22.2534L13.7959 27.4953C12.2035 28.9699 10.611 30.6412 10.611 32.9023Z" fill="#F0A095"/>
<path d="M0.679688 50V44.35C0.839688 44.2233 1.05302 44.1033 1.31969 43.99C1.58635 43.8767 1.88635 43.7833 2.21969 43.71C2.55969 43.6367 2.90969 43.6 3.26969 43.6C4.09635 43.6 4.74969 43.8067 5.22969 44.22C5.70969 44.6267 5.94969 45.2133 5.94969 45.98C5.94969 46.5133 5.83635 46.96 5.60969 47.32C5.38969 47.6733 5.08969 47.9367 4.70969 48.11C4.33635 48.2833 3.92302 48.37 3.46969 48.37C3.22969 48.37 3.01969 48.3467 2.83969 48.3C2.66635 48.2533 2.51302 48.1933 2.37969 48.12V50H0.679688ZM3.32969 47C3.60302 47 3.82302 46.9133 3.98969 46.74C4.16302 46.5667 4.24969 46.3067 4.24969 45.96C4.24969 45.6333 4.16302 45.38 3.98969 45.2C3.81635 45.0133 3.54302 44.92 3.16969 44.92C2.86302 44.92 2.59969 44.98 2.37969 45.1V46.1C2.37969 46.4133 2.47635 46.6433 2.66969 46.79C2.86302 46.93 3.08302 47 3.32969 47ZM9.28625 50.06C8.75292 50.06 8.27958 49.9533 7.86625 49.74C7.45958 49.5267 7.13958 49.2167 6.90625 48.81C6.67292 48.4033 6.55625 47.9133 6.55625 47.34C6.55625 46.5333 6.77958 45.9133 7.22625 45.48C7.67958 45.04 8.28625 44.82 9.04625 44.82C9.57958 44.82 10.0129 44.9233 10.3463 45.13C10.6863 45.33 10.9363 45.6 11.0963 45.94C11.2563 46.28 11.3363 46.6567 11.3363 47.07C11.3363 47.2167 11.3263 47.37 11.3063 47.53C11.2929 47.6833 11.2696 47.8367 11.2363 47.99H8.12625C8.15958 48.33 8.29958 48.56 8.54625 48.68C8.79958 48.8 9.08958 48.86 9.41625 48.86C9.68958 48.86 9.93958 48.83 10.1663 48.77C10.3929 48.7033 10.5763 48.6167 10.7163 48.51L11.1463 49.51C10.9796 49.65 10.7296 49.7767 10.3963 49.89C10.0696 50.0033 9.69958 50.06 9.28625 50.06ZM8.12625 46.98H9.93625C9.93625 46.7133 9.85958 46.49 9.70625 46.31C9.55958 46.1233 9.33625 46.03 9.03625 46.03C8.74958 46.03 8.52625 46.1167 8.36625 46.29C8.20625 46.4633 8.12625 46.6933 8.12625 46.98ZM14.8524 50.07C14.4658 50.07 14.1224 50.0067 13.8224 49.88C13.5224 49.7533 13.2858 49.55 13.1124 49.27C12.9458 48.99 12.8624 48.62 12.8624 48.16V46.24H12.0324V45.05H12.9024V43.64H14.5024V45.05H15.8624V46.25H14.5124V48.11C14.5124 48.3633 14.5724 48.5367 14.6924 48.63C14.8191 48.7233 14.9691 48.77 15.1424 48.77C15.2491 48.77 15.3658 48.76 15.4924 48.74C15.6258 48.7133 15.7291 48.6767 15.8024 48.63L16.0724 49.81C15.9058 49.9033 15.7124 49.97 15.4924 50.01C15.2791 50.05 15.0658 50.07 14.8524 50.07ZM17.6534 50L16.5734 44.88H18.1734L18.7834 48.29L19.7334 44.98H21.3334L22.2834 48.29L22.8934 44.88H24.4934L23.4134 50H21.4234L20.5534 46.92L20.5334 46.82L20.5134 46.92L19.6434 50H17.6534ZM26.1691 50L25.0891 44.88H26.6891L27.2991 48.29L28.2491 44.98H29.8491L30.7991 48.29L31.4091 44.88H33.0091L31.9291 50H29.9391L29.0691 46.92L29.0491 46.82L29.0291 46.92L28.1591 50H26.1691ZM34.6847 50L33.6047 44.88H35.2047L35.8147 48.29L36.7647 44.98H38.3647L39.3147 48.29L39.9247 44.88H41.5247L40.4447 50H38.4547L37.5847 46.92L37.5647 46.82L37.5447 46.92L36.6747 50H34.6847Z" fill="#F0A095"/>
</svg>
